<svg xmlns="http://www.w3.org/2000/svg" xmlns:xlink="http://www.w3.org/1999/xlink" width="500" zoomAndPan="magnify" viewBox="0 0 375 374.999991" height="500" preserveAspectRatio="xMidYMid meet" version="1.0"><defs><g/><clipPath id="id1"><path d="M 136.242188 88.050781 L 238.992188 88.050781 L 238.992188 208.800781 L 136.242188 208.800781 Z M 136.242188 88.050781 " clip-rule="nonzero"/></clipPath><clipPath id="id2"><path d="M 167 88.050781 L 238.992188 88.050781 L 238.992188 169 L 167 169 Z M 167 88.050781 " clip-rule="nonzero"/></clipPath><clipPath id="id3"><path d="M 196.871094 88.050781 L 167.484375 88.050781 L 167.484375 115.203125 L 192.695312 115.203125 C 201.050781 115.203125 207.207031 119.914062 207.207031 128.246094 C 207.207031 136.394531 201.035156 141.105469 192.695312 141.105469 L 167.484375 141.105469 L 167.484375 168.257812 L 196.859375 168.257812 C 224.082031 168.257812 238.972656 149.980469 238.972656 128.246094 C 238.972656 106.328125 224.097656 88.050781 196.871094 88.050781 Z M 196.871094 88.050781 " clip-rule="nonzero"/></clipPath><linearGradient x1="266.999976" gradientTransform="matrix(0.151329, 0, 0, 0.150937, 127.079675, 88.049808)" y1="265.66699" x2="739.399963" gradientUnits="userSpaceOnUse" y2="265.66699" id="id4"><stop stop-opacity="1" stop-color="rgb(33.299255%, 14.498901%, 0%)" offset="0"/><stop stop-opacity="1" stop-color="rgb(33.743286%, 14.942932%, 0.160217%)" offset="0.00390625"/><stop stop-opacity="1" stop-color="rgb(34.187317%, 15.386963%, 0.32196%)" offset="0.0078125"/><stop stop-opacity="1" stop-color="rgb(35.450745%, 16.650391%, 0.78125%)" offset="0.0117188"/><stop stop-opacity="1" stop-color="rgb(36.714172%, 17.915344%, 1.24054%)" offset="0.015625"/><stop stop-opacity="1" stop-color="rgb(37.945557%, 19.140625%, 1.683044%)" offset="0.0195313"/><stop stop-opacity="1" stop-color="rgb(39.178467%, 20.367432%, 2.125549%)" offset="0.0234375"/><stop stop-opacity="1" stop-color="rgb(40.257263%, 21.41571%, 2.485657%)" offset="0.0273438"/><stop stop-opacity="1" stop-color="rgb(41.337585%, 22.465515%, 2.845764%)" offset="0.03125"/><stop stop-opacity="1" stop-color="rgb(42.417908%, 23.51532%, 3.205872%)" offset="0.0351563"/><stop stop-opacity="1" stop-color="rgb(43.49823%, 24.565125%, 3.565979%)" offset="0.0390625"/><stop stop-opacity="1" stop-color="rgb(44.577026%, 25.613403%, 3.924561%)" offset="0.0429688"/><stop stop-opacity="1" stop-color="rgb(45.657349%, 26.663208%, 4.284668%)" offset="0.046875"/><stop stop-opacity="1" stop-color="rgb(46.737671%, 27.711487%, 4.644775%)" offset="0.0507812"/><stop stop-opacity="1" stop-color="rgb(47.817993%, 28.761292%, 5.004883%)" offset="0.0546875"/><stop stop-opacity="1" stop-color="rgb(48.89679%, 29.811096%, 5.36499%)" offset="0.0585938"/><stop stop-opacity="1" stop-color="rgb(49.977112%, 30.860901%, 5.725098%)" offset="0.0625"/><stop stop-opacity="1" stop-color="rgb(51.057434%, 31.90918%, 6.085205%)" offset="0.0664062"/><stop stop-opacity="1" stop-color="rgb(52.137756%, 32.958984%, 6.445312%)" offset="0.0703125"/><stop stop-opacity="1" stop-color="rgb(53.067017%, 33.877563%, 6.759644%)" offset="0.0742188"/><stop stop-opacity="1" stop-color="rgb(53.997803%, 34.797668%, 7.073975%)" offset="0.078125"/><stop stop-opacity="1" stop-color="rgb(54.846191%, 35.646057%, 7.363892%)" offset="0.0820312"/><stop stop-opacity="1" stop-color="rgb(55.69458%, 36.494446%, 7.653809%)" offset="0.0859375"/><stop stop-opacity="1" stop-color="rgb(56.542969%, 37.342834%, 7.9422%)" offset="0.0898438"/><stop stop-opacity="1" stop-color="rgb(57.392883%, 38.192749%, 8.232117%)" offset="0.09375"/><stop stop-opacity="1" stop-color="rgb(58.241272%, 39.041138%, 8.522034%)" offset="0.0976562"/><stop stop-opacity="1" stop-color="rgb(59.089661%, 39.889526%, 8.811951%)" offset="0.101562"/><stop stop-opacity="1" stop-color="rgb(59.938049%, 40.737915%, 9.101868%)" offset="0.105469"/><stop stop-opacity="1" stop-color="rgb(60.786438%, 41.586304%, 9.391785%)" offset="0.109375"/><stop stop-opacity="1" stop-color="rgb(61.634827%, 42.434692%, 9.680176%)" offset="0.113281"/><stop stop-opacity="1" stop-color="rgb(62.484741%, 43.284607%, 9.970093%)" offset="0.117187"/><stop stop-opacity="1" stop-color="rgb(63.33313%, 44.132996%, 10.26001%)" offset="0.121094"/><stop stop-opacity="1" stop-color="rgb(64.181519%, 44.981384%, 10.549927%)" offset="0.125"/><stop stop-opacity="1" stop-color="rgb(64.99176%, 45.787048%, 10.827637%)" offset="0.128906"/><stop stop-opacity="1" stop-color="rgb(65.803528%, 46.592712%, 11.106873%)" offset="0.132812"/><stop stop-opacity="1" stop-color="rgb(66.485596%, 47.250366%, 11.347961%)" offset="0.136719"/><stop stop-opacity="1" stop-color="rgb(67.167664%, 47.90802%, 11.590576%)" offset="0.140625"/><stop stop-opacity="1" stop-color="rgb(67.849731%, 48.564148%, 11.831665%)" offset="0.144531"/><stop stop-opacity="1" stop-color="rgb(68.531799%, 49.221802%, 12.07428%)" offset="0.148438"/><stop stop-opacity="1" stop-color="rgb(69.213867%, 49.879456%, 12.315369%)" offset="0.152344"/><stop stop-opacity="1" stop-color="rgb(69.895935%, 50.537109%, 12.557983%)" offset="0.15625"/><stop stop-opacity="1" stop-color="rgb(70.578003%, 51.193237%, 12.799072%)" offset="0.160156"/><stop stop-opacity="1" stop-color="rgb(71.260071%, 51.850891%, 13.041687%)" offset="0.164062"/><stop stop-opacity="1" stop-color="rgb(71.942139%, 52.507019%, 13.282776%)" offset="0.167969"/><stop stop-opacity="1" stop-color="rgb(72.624207%, 53.164673%, 13.525391%)" offset="0.171875"/><stop stop-opacity="1" stop-color="rgb(73.306274%, 53.822327%, 13.766479%)" offset="0.175781"/><stop stop-opacity="1" stop-color="rgb(73.988342%, 54.47998%, 14.009094%)" offset="0.179688"/><stop stop-opacity="1" stop-color="rgb(74.67041%, 55.136108%, 14.250183%)" offset="0.183594"/><stop stop-opacity="1" stop-color="rgb(75.352478%, 55.793762%, 14.492798%)" offset="0.1875"/><stop stop-opacity="1" stop-color="rgb(75.999451%, 56.420898%, 14.718628%)" offset="0.191406"/><stop stop-opacity="1" stop-color="rgb(76.647949%, 57.048035%, 14.945984%)" offset="0.195312"/><stop stop-opacity="1" stop-color="rgb(77.114868%, 57.514954%, 15.092468%)" offset="0.199219"/><stop stop-opacity="1" stop-color="rgb(77.581787%, 57.981873%, 15.238953%)" offset="0.203125"/><stop stop-opacity="1" stop-color="rgb(78.04718%, 58.447266%, 15.385437%)" offset="0.207031"/><stop stop-opacity="1" stop-color="rgb(78.514099%, 58.914185%, 15.531921%)" offset="0.210937"/><stop stop-opacity="1" stop-color="rgb(78.981018%, 59.381104%, 15.678406%)" offset="0.214844"/><stop stop-opacity="1" stop-color="rgb(79.447937%, 59.848022%, 15.82489%)" offset="0.21875"/><stop stop-opacity="1" stop-color="rgb(79.91333%, 60.313416%, 15.971375%)" offset="0.222656"/><stop stop-opacity="1" stop-color="rgb(80.380249%, 60.780334%, 16.117859%)" offset="0.226562"/><stop stop-opacity="1" stop-color="rgb(80.847168%, 61.247253%, 16.264343%)" offset="0.230469"/><stop stop-opacity="1" stop-color="rgb(81.314087%, 61.714172%, 16.410828%)" offset="0.234375"/><stop stop-opacity="1" stop-color="rgb(81.77948%, 62.179565%, 16.557312%)" offset="0.238281"/><stop stop-opacity="1" stop-color="rgb(82.246399%, 62.646484%, 16.703796%)" offset="0.242187"/><stop stop-opacity="1" stop-color="rgb(82.713318%, 63.113403%, 16.850281%)" offset="0.246094"/><stop stop-opacity="1" stop-color="rgb(83.180237%, 63.580322%, 16.996765%)" offset="0.25"/><stop stop-opacity="1" stop-color="rgb(83.647156%, 64.045715%, 17.14325%)" offset="0.253906"/><stop stop-opacity="1" stop-color="rgb(84.114075%, 64.512634%, 17.289734%)" offset="0.257812"/><stop stop-opacity="1" stop-color="rgb(84.579468%, 64.979553%, 17.436218%)" offset="0.261719"/><stop stop-opacity="1" stop-color="rgb(85.046387%, 65.446472%, 17.582703%)" offset="0.265625"/><stop stop-opacity="1" stop-color="rgb(85.369873%, 65.769958%, 17.697144%)" offset="0.269531"/><stop stop-opacity="1" stop-color="rgb(85.694885%, 66.094971%, 17.81311%)" offset="0.273438"/><stop stop-opacity="1" stop-color="rgb(86.009216%, 66.409302%, 17.926025%)" offset="0.277344"/><stop stop-opacity="1" stop-color="rgb(86.325073%, 66.725159%, 18.03894%)" offset="0.28125"/><stop stop-opacity="1" stop-color="rgb(86.639404%, 67.03949%, 18.151855%)" offset="0.285156"/><stop stop-opacity="1" stop-color="rgb(86.955261%, 67.355347%, 18.264771%)" offset="0.289062"/><stop stop-opacity="1" stop-color="rgb(87.271118%, 67.669678%, 18.377686%)" offset="0.292969"/><stop stop-opacity="1" stop-color="rgb(87.586975%, 67.985535%, 18.490601%)" offset="0.296875"/><stop stop-opacity="1" stop-color="rgb(87.901306%, 68.301392%, 18.603516%)" offset="0.300781"/><stop stop-opacity="1" stop-color="rgb(88.217163%, 68.617249%, 18.716431%)" offset="0.304688"/><stop stop-opacity="1" stop-color="rgb(88.531494%, 68.93158%, 18.829346%)" offset="0.308594"/><stop stop-opacity="1" stop-color="rgb(88.847351%, 69.247437%, 18.942261%)" offset="0.3125"/><stop stop-opacity="1" stop-color="rgb(89.161682%, 69.561768%, 19.055176%)" offset="0.316406"/><stop stop-opacity="1" stop-color="rgb(89.477539%, 69.877625%, 19.168091%)" offset="0.320312"/><stop stop-opacity="1" stop-color="rgb(89.793396%, 70.193481%, 19.281006%)" offset="0.324219"/><stop stop-opacity="1" stop-color="rgb(90.109253%, 70.509338%, 19.393921%)" offset="0.328125"/><stop stop-opacity="1" stop-color="rgb(90.423584%, 70.823669%, 19.506836%)" offset="0.332031"/><stop stop-opacity="1" stop-color="rgb(90.739441%, 71.139526%, 19.619751%)" offset="0.335938"/><stop stop-opacity="1" stop-color="rgb(91.053772%, 71.453857%, 19.732666%)" offset="0.339844"/><stop stop-opacity="1" stop-color="rgb(91.369629%, 71.769714%, 19.845581%)" offset="0.34375"/><stop stop-opacity="1" stop-color="rgb(91.636658%, 72.036743%, 19.941711%)" offset="0.347656"/><stop stop-opacity="1" stop-color="rgb(91.903687%, 72.303772%, 20.037842%)" offset="0.351562"/><stop stop-opacity="1" stop-color="rgb(92.066956%, 72.467041%, 20.098877%)" offset="0.359375"/><stop stop-opacity="1" stop-color="rgb(92.391968%, 72.792053%, 20.219421%)" offset="0.367188"/><stop stop-opacity="1" stop-color="rgb(92.718506%, 73.118591%, 20.341492%)" offset="0.375"/><stop stop-opacity="1" stop-color="rgb(93.045044%, 73.445129%, 20.462036%)" offset="0.382812"/><stop stop-opacity="1" stop-color="rgb(93.371582%, 73.771667%, 20.584106%)" offset="0.390625"/><stop stop-opacity="1" stop-color="rgb(93.696594%, 74.09668%, 20.704651%)" offset="0.398437"/><stop stop-opacity="1" stop-color="rgb(94.023132%, 74.423218%, 20.826721%)" offset="0.40625"/><stop stop-opacity="1" stop-color="rgb(94.34967%, 74.749756%, 20.947266%)" offset="0.414062"/><stop stop-opacity="1" stop-color="rgb(94.676208%, 75.076294%, 21.069336%)" offset="0.421875"/><stop stop-opacity="1" stop-color="rgb(95.001221%, 75.401306%, 21.18988%)" offset="0.429687"/><stop stop-opacity="1" stop-color="rgb(95.327759%, 75.727844%, 21.311951%)" offset="0.4375"/><stop stop-opacity="1" stop-color="rgb(95.654297%, 76.054382%, 21.434021%)" offset="0.445312"/><stop stop-opacity="1" stop-color="rgb(95.968628%, 76.367188%, 21.549988%)" offset="0.453125"/><stop stop-opacity="1" stop-color="rgb(96.264648%, 76.663208%, 21.647644%)" offset="0.46875"/><stop stop-opacity="1" stop-color="rgb(96.554565%, 76.954651%, 21.734619%)" offset="0.484375"/><stop stop-opacity="1" stop-color="rgb(96.846008%, 77.246094%, 21.820068%)" offset="0.5"/><stop stop-opacity="1" stop-color="rgb(97.137451%, 77.537537%, 21.907043%)" offset="0.515625"/><stop stop-opacity="1" stop-color="rgb(97.427368%, 77.827454%, 21.992493%)" offset="0.53125"/><stop stop-opacity="1" stop-color="rgb(97.718811%, 78.118896%, 22.079468%)" offset="0.546875"/><stop stop-opacity="1" stop-color="rgb(98.010254%, 78.410339%, 22.164917%)" offset="0.5625"/><stop stop-opacity="1" stop-color="rgb(98.300171%, 78.700256%, 22.251892%)" offset="0.578125"/><stop stop-opacity="1" stop-color="rgb(98.591614%, 78.991699%, 22.337341%)" offset="0.59375"/><stop stop-opacity="1" stop-color="rgb(98.796082%, 79.196167%, 22.399902%)" offset="0.625"/><stop stop-opacity="1" stop-color="rgb(98.977661%, 79.377747%, 22.465515%)" offset="0.75"/><stop stop-opacity="1" stop-color="rgb(99.226379%, 79.626465%, 22.558594%)" offset="0.875"/><stop stop-opacity="1" stop-color="rgb(99.475098%, 79.875183%, 22.651672%)" offset="1"/></linearGradient><clipPath id="id5"><path d="M 64.691406 70.570312 L 113 70.570312 L 113 226.570312 L 64.691406 226.570312 Z M 64.691406 70.570312 " clip-rule="nonzero"/></clipPath><clipPath id="id6"><path d="M 251 70.570312 L 298.007812 70.570312 L 298.007812 226.570312 L 251 226.570312 Z M 251 70.570312 " clip-rule="nonzero"/></clipPath></defs><g clip-path="url(#id1)"><path fill="#feea3a" d="M 136.25 208.800781 L 136.25 88.050781 L 196.871094 88.050781 C 224.097656 88.050781 238.988281 106.328125 238.988281 128.246094 C 238.988281 149.964844 224.113281 168.257812 196.871094 168.257812 L 167.46875 168.257812 L 167.46875 208.800781 Z M 207.207031 128.246094 C 207.207031 119.914062 201.035156 115.203125 192.679688 115.203125 L 167.46875 115.203125 L 167.46875 141.089844 L 192.695312 141.089844 C 201.050781 141.089844 207.207031 136.378906 207.207031 128.246094 Z M 207.207031 128.246094 " fill-opacity="1" fill-rule="nonzero"/></g><g clip-path="url(#id2)"><g clip-path="url(#id3)"><path fill="url(#id4)" d="M 167.484375 88.050781 L 167.484375 168.257812 L 238.972656 168.257812 L 238.972656 88.050781 Z M 167.484375 88.050781 " fill-rule="nonzero"/></g></g><g fill="#ffffff" fill-opacity="1"><g transform="translate(62.341542, 262.453708)"><g><path d="M 10.394531 -23.355469 L 14.617188 -27.609375 L 10.992188 -27.609375 L 7.679688 -23.355469 Z M 16.445312 0 L 16.445312 -3.253906 L 5.652344 -3.253906 L 5.652344 -9.308594 L 15.246094 -9.308594 L 15.246094 -12.535156 L 5.652344 -12.535156 L 5.652344 -18.53125 L 16.445312 -18.53125 L 16.445312 -21.785156 L 2.027344 -21.785156 L 2.027344 0 Z M 16.445312 0 "/></g></g></g><g fill="#ffffff" fill-opacity="1"><g transform="translate(83.124858, 262.453708)"><g><path d="M 15.074219 0 L 15.074219 -3.253906 L 5.652344 -3.253906 L 5.652344 -21.785156 L 2.027344 -21.785156 L 2.027344 0 Z M 15.074219 0 "/></g></g></g><g fill="#ffffff" fill-opacity="1"><g transform="translate(101.652967, 262.453708)"><g><path d="M 5.652344 0 L 5.652344 -21.785156 L 2.027344 -21.785156 L 2.027344 0 Z M 5.652344 0 "/></g></g></g><g fill="#ffffff" fill-opacity="1"><g transform="translate(112.501954, 262.453708)"><g><path d="M 10.820312 0 L 10.820312 -18.53125 L 17.730469 -18.53125 L 17.730469 -21.785156 L 0.34375 -21.785156 L 0.34375 -18.53125 L 7.195312 -18.53125 L 7.195312 0 Z M 10.820312 0 "/></g></g></g><g fill="#ffffff" fill-opacity="1"><g transform="translate(133.656379, 262.453708)"><g><path d="M 11.648438 0.371094 C 18.730469 0.371094 22.070312 -4.910156 22.070312 -10.90625 C 22.070312 -16.902344 18.730469 -22.128906 11.648438 -22.128906 C 4.539062 -22.128906 1.226562 -16.902344 1.226562 -10.90625 C 1.226562 -4.910156 4.539062 0.371094 11.648438 0.371094 Z M 11.648438 -2.882812 C 7.367188 -2.882812 4.96875 -6.195312 4.96875 -10.90625 C 4.96875 -15.589844 7.367188 -18.902344 11.648438 -18.902344 C 15.960938 -18.902344 18.332031 -15.589844 18.332031 -10.90625 C 18.332031 -6.195312 15.960938 -2.882812 11.648438 -2.882812 Z M 11.648438 -2.882812 "/></g></g></g><g fill="#ffffff" fill-opacity="1"><g transform="translate(160.091989, 262.453708)"><g/></g></g><g fill="#ffffff" fill-opacity="1"><g transform="translate(170.969529, 262.453708)"><g><path d="M 5.652344 0 L 5.652344 -8.878906 L 11.019531 -8.878906 C 15.132812 -8.878906 17.902344 -11.308594 17.902344 -15.417969 C 17.902344 -19.84375 15.105469 -21.785156 11.019531 -21.785156 L 2.027344 -21.785156 L 2.027344 0 Z M 5.652344 -18.53125 L 10.535156 -18.53125 C 12.960938 -18.53125 14.332031 -17.386719 14.332031 -15.304688 C 14.332031 -13.191406 12.992188 -12.050781 10.535156 -12.050781 L 5.652344 -12.050781 Z M 5.652344 -18.53125 "/></g></g></g><g fill="#ffffff" fill-opacity="1"><g transform="translate(192.837631, 262.453708)"><g><path d="M 14.332031 -9.507812 C 16.558594 -10.507812 17.902344 -12.535156 17.902344 -15.417969 C 17.902344 -19.84375 15.105469 -21.785156 11.019531 -21.785156 L 2.027344 -21.785156 L 2.027344 0 L 5.652344 0 L 5.652344 -8.878906 L 10.851562 -8.878906 L 14.449219 0 L 18.359375 0 Z M 5.652344 -18.53125 L 10.535156 -18.53125 C 12.960938 -18.53125 14.332031 -17.386719 14.332031 -15.304688 C 14.332031 -13.191406 12.992188 -12.050781 10.535156 -12.050781 L 5.652344 -12.050781 Z M 5.652344 -18.53125 "/></g></g></g><g fill="#ffffff" fill-opacity="1"><g transform="translate(215.333762, 262.453708)"><g><path d="M 4.027344 0 L 5.652344 -4.769531 L 14.476562 -4.769531 L 16.074219 0 L 19.84375 0 L 12.050781 -21.785156 L 8.050781 -21.785156 L 0.257812 0 Z M 10.050781 -17.902344 L 13.390625 -7.9375 L 6.710938 -7.9375 Z M 10.050781 -17.902344 "/></g></g></g><g fill="#ffffff" fill-opacity="1"><g transform="translate(238.543568, 262.453708)"><g><path d="M 10.820312 0 L 10.820312 -18.53125 L 17.730469 -18.53125 L 17.730469 -21.785156 L 0.34375 -21.785156 L 0.34375 -18.53125 L 7.195312 -18.53125 L 7.195312 0 Z M 10.820312 0 "/></g></g></g><g fill="#ffffff" fill-opacity="1"><g transform="translate(259.698005, 262.453708)"><g><path d="M 16.445312 0 L 16.445312 -3.253906 L 5.652344 -3.253906 L 5.652344 -9.308594 L 15.246094 -9.308594 L 15.246094 -12.535156 L 5.652344 -12.535156 L 5.652344 -18.53125 L 16.445312 -18.53125 L 16.445312 -21.785156 L 2.027344 -21.785156 L 2.027344 0 Z M 16.445312 0 "/></g></g></g><g fill="#ffffff" fill-opacity="1"><g transform="translate(280.481321, 262.453708)"><g><path d="M 10.421875 0.371094 C 15.53125 0.371094 18.417969 -2.226562 18.417969 -6.253906 C 18.417969 -11.136719 14.246094 -12.019531 10.621094 -12.820312 C 7.878906 -13.417969 5.453125 -13.960938 5.453125 -16.1875 C 5.453125 -17.988281 6.9375 -19.015625 9.28125 -19.015625 C 11.59375 -19.015625 13.589844 -17.988281 14.191406 -15.476562 L 17.816406 -15.476562 C 17.101562 -20.101562 13.390625 -22.128906 9.335938 -22.128906 C 5.023438 -22.128906 1.828125 -19.902344 1.828125 -15.875 C 1.828125 -11.390625 5.769531 -10.535156 9.25 -9.792969 C 12.136719 -9.164062 14.789062 -8.59375 14.789062 -6.023438 C 14.789062 -3.796875 13.019531 -2.742188 10.480469 -2.742188 C 8.082031 -2.742188 5.480469 -3.683594 4.769531 -6.910156 L 1.085938 -6.910156 C 1.683594 -1.542969 6.195312 0.371094 10.421875 0.371094 Z M 10.421875 0.371094 "/></g></g></g><g fill="#feea3a" fill-opacity="1"><g transform="translate(84.374002, 288.074746)"><g><path d="M 4.503906 0 C 8.476562 0 10.648438 -2.15625 10.648438 -5.925781 C 10.648438 -9.757812 8.492188 -11.929688 4.519531 -11.929688 L 1.234375 -11.929688 L 1.234375 0 Z M 2.675781 -10.632812 L 4.503906 -10.632812 C 7.269531 -10.632812 9.210938 -9.414062 9.210938 -5.925781 C 9.210938 -2.15625 6.988281 -1.296875 4.488281 -1.296875 L 2.675781 -1.296875 Z M 2.675781 -10.632812 "/></g></g></g><g fill="#feea3a" fill-opacity="1"><g transform="translate(100.400801, 288.074746)"><g><path d="M 8.945312 0 L 8.945312 -1.296875 L 2.675781 -1.296875 L 2.675781 -5.347656 L 8.210938 -5.347656 L 8.210938 -6.628906 L 2.675781 -6.628906 L 2.675781 -10.632812 L 8.945312 -10.632812 L 8.945312 -11.929688 L 1.234375 -11.929688 L 1.234375 0 Z M 8.945312 0 "/></g></g></g><g fill="#feea3a" fill-opacity="1"><g transform="translate(114.614203, 288.074746)"><g><path d="M 5.550781 0.15625 C 8.273438 0.15625 9.726562 -1.21875 9.726562 -3.332031 C 9.726562 -5.941406 7.585938 -6.394531 5.628906 -6.816406 C 4.035156 -7.160156 2.582031 -7.476562 2.582031 -8.929688 C 2.582031 -10.070312 3.425781 -10.804688 5.035156 -10.804688 C 6.347656 -10.804688 7.648438 -10.273438 7.992188 -8.648438 L 9.382812 -8.648438 C 8.992188 -11.101562 7.066406 -12.085938 5.050781 -12.085938 C 2.722656 -12.085938 1.140625 -10.835938 1.140625 -8.804688 C 1.140625 -6.457031 3.128906 -6.035156 4.988281 -5.644531 C 6.675781 -5.285156 8.289062 -4.941406 8.289062 -3.238281 C 8.289062 -1.8125 7.285156 -1.125 5.613281 -1.125 C 4.128906 -1.125 2.488281 -1.703125 2.109375 -3.613281 L 0.65625 -3.613281 C 1.0625 -0.9375 3.191406 0.15625 5.550781 0.15625 Z M 5.550781 0.15625 "/></g></g></g><g fill="#feea3a" fill-opacity="1"><g transform="translate(129.718678, 288.074746)"><g><path d="M 8.945312 0 L 8.945312 -1.296875 L 2.675781 -1.296875 L 2.675781 -5.347656 L 8.210938 -5.347656 L 8.210938 -6.628906 L 2.675781 -6.628906 L 2.675781 -10.632812 L 8.945312 -10.632812 L 8.945312 -11.929688 L 1.234375 -11.929688 L 1.234375 0 Z M 8.945312 0 "/></g></g></g><g fill="#feea3a" fill-opacity="1"><g transform="translate(143.932078, 288.074746)"><g><path d="M 2.675781 0 L 2.675781 -10.460938 L 8.023438 0 L 10.117188 0 L 10.117188 -11.929688 L 8.695312 -11.929688 L 8.695312 -1.4375 L 3.332031 -11.929688 L 1.234375 -11.929688 L 1.234375 0 Z M 2.675781 0 "/></g></g></g><g fill="#feea3a" fill-opacity="1"><g transform="translate(159.880712, 288.074746)"><g><path d="M 6.238281 0 L 10.632812 -11.929688 L 9.179688 -11.929688 L 5.425781 -1.46875 L 1.671875 -11.929688 L 0.21875 -11.929688 L 4.613281 0 Z M 6.238281 0 "/></g></g></g><g fill="#feea3a" fill-opacity="1"><g transform="translate(175.31347, 288.074746)"><g><path d="M 6.316406 0.15625 C 10.101562 0.15625 11.882812 -2.722656 11.882812 -5.972656 C 11.882812 -9.226562 10.101562 -12.085938 6.316406 -12.085938 C 2.566406 -12.085938 0.78125 -9.226562 0.78125 -5.972656 C 0.78125 -2.722656 2.566406 0.15625 6.316406 0.15625 Z M 6.316406 -1.140625 C 3.675781 -1.140625 2.21875 -3.175781 2.21875 -5.972656 C 2.21875 -8.757812 3.675781 -10.789062 6.316406 -10.789062 C 9.007812 -10.789062 10.445312 -8.757812 10.445312 -5.972656 C 10.445312 -3.175781 9.007812 -1.140625 6.316406 -1.140625 Z M 6.316406 -1.140625 "/></g></g></g><g fill="#feea3a" fill-opacity="1"><g transform="translate(192.575273, 288.074746)"><g><path d="M 8.023438 0 L 8.023438 -1.296875 L 2.675781 -1.296875 L 2.675781 -11.929688 L 1.234375 -11.929688 L 1.234375 0 Z M 8.023438 0 "/></g></g></g><g fill="#feea3a" fill-opacity="1"><g transform="translate(205.412979, 288.074746)"><g><path d="M 6.238281 0 L 10.632812 -11.929688 L 9.179688 -11.929688 L 5.425781 -1.46875 L 1.671875 -11.929688 L 0.21875 -11.929688 L 4.613281 0 Z M 6.238281 0 "/></g></g></g><g fill="#feea3a" fill-opacity="1"><g transform="translate(220.845736, 288.074746)"><g><path d="M 8.945312 0 L 8.945312 -1.296875 L 2.675781 -1.296875 L 2.675781 -5.347656 L 8.210938 -5.347656 L 8.210938 -6.628906 L 2.675781 -6.628906 L 2.675781 -10.632812 L 8.945312 -10.632812 L 8.945312 -11.929688 L 1.234375 -11.929688 L 1.234375 0 Z M 8.945312 0 "/></g></g></g><g fill="#feea3a" fill-opacity="1"><g transform="translate(235.059137, 288.074746)"><g><path d="M 4.503906 0 C 8.476562 0 10.648438 -2.15625 10.648438 -5.925781 C 10.648438 -9.757812 8.492188 -11.929688 4.519531 -11.929688 L 1.234375 -11.929688 L 1.234375 0 Z M 2.675781 -10.632812 L 4.503906 -10.632812 C 7.269531 -10.632812 9.210938 -9.414062 9.210938 -5.925781 C 9.210938 -2.15625 6.988281 -1.296875 4.488281 -1.296875 L 2.675781 -1.296875 Z M 2.675781 -10.632812 "/></g></g></g><g fill="#feea3a" fill-opacity="1"><g transform="translate(251.085934, 288.074746)"><g><path d="M 6.316406 0.15625 C 10.101562 0.15625 11.882812 -2.722656 11.882812 -5.972656 C 11.882812 -9.226562 10.101562 -12.085938 6.316406 -12.085938 C 2.566406 -12.085938 0.78125 -9.226562 0.78125 -5.972656 C 0.78125 -2.722656 2.566406 0.15625 6.316406 0.15625 Z M 6.316406 -1.140625 C 3.675781 -1.140625 2.21875 -3.175781 2.21875 -5.972656 C 2.21875 -8.757812 3.675781 -10.789062 6.316406 -10.789062 C 9.007812 -10.789062 10.445312 -8.757812 10.445312 -5.972656 C 10.445312 -3.175781 9.007812 -1.140625 6.316406 -1.140625 Z M 6.316406 -1.140625 "/></g></g></g><g fill="#feea3a" fill-opacity="1"><g transform="translate(268.347732, 288.074746)"><g><path d="M 7.316406 -5.300781 C 8.664062 -5.785156 9.460938 -6.910156 9.460938 -8.523438 C 9.460938 -10.820312 7.960938 -11.929688 5.675781 -11.929688 L 1.234375 -11.929688 L 1.234375 0 L 2.675781 0 L 2.675781 -5.035156 L 5.925781 -5.035156 L 8.039062 0 L 9.617188 0 Z M 2.675781 -6.316406 L 2.675781 -10.632812 L 5.488281 -10.632812 C 7.097656 -10.632812 8.039062 -9.851562 8.039062 -8.476562 C 8.039062 -7.082031 7.128906 -6.316406 5.488281 -6.316406 Z M 2.675781 -6.316406 "/></g></g></g><g clip-path="url(#id5)"><path fill="#a531b4" d="M 108.09375 87.902344 L 112.429688 87.902344 L 112.429688 70.570312 L 108.09375 70.570312 C 93.722656 70.570312 82.070312 82.210938 82.070312 96.570312 L 82.070312 126.902344 C 82.070312 129.632812 80.785156 132.199219 78.601562 133.835938 L 68.191406 141.636719 C 66.109375 143.199219 64.835938 145.613281 64.730469 148.210938 C 64.621094 150.808594 65.6875 153.320312 67.632812 155.046875 L 79.15625 165.28125 C 81.011719 166.925781 82.070312 169.285156 82.070312 171.757812 L 82.070312 200.570312 C 82.070312 214.929688 93.722656 226.570312 108.09375 226.570312 L 112.429688 226.570312 L 112.429688 209.238281 L 108.09375 209.238281 C 103.300781 209.238281 99.417969 205.355469 99.417969 200.570312 L 99.417969 171.757812 C 99.417969 164.332031 96.238281 157.257812 90.683594 152.324219 L 87.09375 149.140625 L 89.007812 147.703125 C 95.5625 142.792969 99.417969 135.085938 99.417969 126.902344 L 99.417969 96.570312 C 99.417969 91.785156 103.300781 87.902344 108.09375 87.902344 Z M 108.09375 87.902344 " fill-opacity="1" fill-rule="evenodd"/></g><g clip-path="url(#id6)"><path fill="#a531b4" d="M 256.199219 87.902344 L 251.863281 87.902344 L 251.863281 70.570312 L 256.199219 70.570312 C 270.574219 70.570312 282.222656 82.210938 282.222656 96.570312 L 282.222656 126.902344 C 282.222656 129.632812 283.507812 132.199219 285.695312 133.835938 L 296.101562 141.636719 C 298.183594 143.199219 299.457031 145.613281 299.566406 148.210938 C 299.671875 150.808594 298.605469 153.320312 296.660156 155.046875 L 285.136719 165.28125 C 283.285156 166.925781 282.222656 169.285156 282.222656 171.757812 L 282.222656 200.570312 C 282.222656 214.929688 270.574219 226.570312 256.199219 226.570312 L 251.863281 226.570312 L 251.863281 209.238281 L 256.199219 209.238281 C 260.992188 209.238281 264.875 205.355469 264.875 200.570312 L 264.875 171.757812 C 264.875 164.332031 268.054688 157.257812 273.613281 152.324219 L 277.199219 149.140625 L 275.285156 147.703125 C 268.730469 142.792969 264.875 135.085938 264.875 126.902344 L 264.875 96.570312 C 264.875 91.785156 260.992188 87.902344 256.199219 87.902344 Z M 256.199219 87.902344 " fill-opacity="1" fill-rule="evenodd"/></g></svg>