<svg xmlns="http://www.w3.org/2000/svg" xmlns:xlink="http://www.w3.org/1999/xlink" width="500" zoomAndPan="magnify" viewBox="0 0 375 374.999991" height="500" preserveAspectRatio="xMidYMid meet" version="1.0"><defs><g/><clipPath id="id1"><path d="M 136.242188 88.050781 L 238.992188 88.050781 L 238.992188 208.800781 L 136.242188 208.800781 Z M 136.242188 88.050781 " clip-rule="nonzero"/></clipPath><clipPath id="id2"><path d="M 167 88.050781 L 238.992188 88.050781 L 238.992188 169 L 167 169 Z M 167 88.050781 " clip-rule="nonzero"/></clipPath><clipPath id="id3"><path d="M 196.871094 88.050781 L 167.484375 88.050781 L 167.484375 115.203125 L 192.695312 115.203125 C 201.050781 115.203125 207.207031 119.914062 207.207031 128.246094 C 207.207031 136.394531 201.035156 141.105469 192.695312 141.105469 L 167.484375 141.105469 L 167.484375 168.257812 L 196.859375 168.257812 C 224.082031 168.257812 238.972656 149.980469 238.972656 128.246094 C 238.972656 106.328125 224.097656 88.050781 196.871094 88.050781 Z M 196.871094 88.050781 " clip-rule="nonzero"/></clipPath><linearGradient x1="266.999976" gradientTransform="matrix(0.151329, 0, 0, 0.150937, 127.079675, 88.049808)" y1="265.66699" x2="739.399963" gradientUnits="userSpaceOnUse" y2="265.66699" id="id4"><stop stop-opacity="1" stop-color="rgb(33.299255%, 14.498901%, 0%)" offset="0"/><stop stop-opacity="1" stop-color="rgb(33.743286%, 14.942932%, 0.160217%)" offset="0.00390625"/><stop stop-opacity="1" stop-color="rgb(34.187317%, 15.386963%, 0.32196%)" offset="0.0078125"/><stop stop-opacity="1" stop-color="rgb(35.450745%, 16.650391%, 0.78125%)" offset="0.0117188"/><stop stop-opacity="1" stop-color="rgb(36.714172%, 17.915344%, 1.24054%)" offset="0.015625"/><stop stop-opacity="1" stop-color="rgb(37.945557%, 19.140625%, 1.683044%)" offset="0.0195313"/><stop stop-opacity="1" stop-color="rgb(39.178467%, 20.367432%, 2.125549%)" offset="0.0234375"/><stop stop-opacity="1" stop-color="rgb(40.257263%, 21.41571%, 2.485657%)" offset="0.0273438"/><stop stop-opacity="1" stop-color="rgb(41.337585%, 22.465515%, 2.845764%)" offset="0.03125"/><stop stop-opacity="1" stop-color="rgb(42.417908%, 23.51532%, 3.205872%)" offset="0.0351563"/><stop stop-opacity="1" stop-color="rgb(43.49823%, 24.565125%, 3.565979%)" offset="0.0390625"/><stop stop-opacity="1" stop-color="rgb(44.577026%, 25.613403%, 3.924561%)" offset="0.0429688"/><stop stop-opacity="1" stop-color="rgb(45.657349%, 26.663208%, 4.284668%)" offset="0.046875"/><stop stop-opacity="1" stop-color="rgb(46.737671%, 27.711487%, 4.644775%)" offset="0.0507812"/><stop stop-opacity="1" stop-color="rgb(47.817993%, 28.761292%, 5.004883%)" offset="0.0546875"/><stop stop-opacity="1" stop-color="rgb(48.89679%, 29.811096%, 5.36499%)" offset="0.0585938"/><stop stop-opacity="1" stop-color="rgb(49.977112%, 30.860901%, 5.725098%)" offset="0.0625"/><stop stop-opacity="1" stop-color="rgb(51.057434%, 31.90918%, 6.085205%)" offset="0.0664062"/><stop stop-opacity="1" stop-color="rgb(52.137756%, 32.958984%, 6.445312%)" offset="0.0703125"/><stop stop-opacity="1" stop-color="rgb(53.067017%, 33.877563%, 6.759644%)" offset="0.0742188"/><stop stop-opacity="1" stop-color="rgb(53.997803%, 34.797668%, 7.073975%)" offset="0.078125"/><stop stop-opacity="1" stop-color="rgb(54.846191%, 35.646057%, 7.363892%)" offset="0.0820312"/><stop stop-opacity="1" stop-color="rgb(55.69458%, 36.494446%, 7.653809%)" offset="0.0859375"/><stop stop-opacity="1" stop-color="rgb(56.542969%, 37.342834%, 7.9422%)" offset="0.0898438"/><stop stop-opacity="1" stop-color="rgb(57.392883%, 38.192749%, 8.232117%)" offset="0.09375"/><stop stop-opacity="1" stop-color="rgb(58.241272%, 39.041138%, 8.522034%)" offset="0.0976562"/><stop stop-opacity="1" stop-color="rgb(59.089661%, 39.889526%, 8.811951%)" offset="0.101562"/><stop stop-opacity="1" stop-color="rgb(59.938049%, 40.737915%, 9.101868%)" offset="0.105469"/><stop stop-opacity="1" stop-color="rgb(60.786438%, 41.586304%, 9.391785%)" offset="0.109375"/><stop stop-opacity="1" stop-color="rgb(61.634827%, 42.434692%, 9.680176%)" offset="0.113281"/><stop stop-opacity="1" stop-color="rgb(62.484741%, 43.284607%, 9.970093%)" offset="0.117187"/><stop stop-opacity="1" stop-color="rgb(63.33313%, 44.132996%, 10.26001%)" offset="0.121094"/><stop stop-opacity="1" stop-color="rgb(64.181519%, 44.981384%, 10.549927%)" offset="0.125"/><stop stop-opacity="1" stop-color="rgb(64.99176%, 45.787048%, 10.827637%)" offset="0.128906"/><stop stop-opacity="1" stop-color="rgb(65.803528%, 46.592712%, 11.106873%)" offset="0.132812"/><stop stop-opacity="1" stop-color="rgb(66.485596%, 47.250366%, 11.347961%)" offset="0.136719"/><stop stop-opacity="1" stop-color="rgb(67.167664%, 47.90802%, 11.590576%)" offset="0.140625"/><stop stop-opacity="1" stop-color="rgb(67.849731%, 48.564148%, 11.831665%)" offset="0.144531"/><stop stop-opacity="1" stop-color="rgb(68.531799%, 49.221802%, 12.07428%)" offset="0.148438"/><stop stop-opacity="1" stop-color="rgb(69.213867%, 49.879456%, 12.315369%)" offset="0.152344"/><stop stop-opacity="1" stop-color="rgb(69.895935%, 50.537109%, 12.557983%)" offset="0.15625"/><stop stop-opacity="1" stop-color="rgb(70.578003%, 51.193237%, 12.799072%)" offset="0.160156"/><stop stop-opacity="1" stop-color="rgb(71.260071%, 51.850891%, 13.041687%)" offset="0.164062"/><stop stop-opacity="1" stop-color="rgb(71.942139%, 52.507019%, 13.282776%)" offset="0.167969"/><stop stop-opacity="1" stop-color="rgb(72.624207%, 53.164673%, 13.525391%)" offset="0.171875"/><stop stop-opacity="1" stop-color="rgb(73.306274%, 53.822327%, 13.766479%)" offset="0.175781"/><stop stop-opacity="1" stop-color="rgb(73.988342%, 54.47998%, 14.009094%)" offset="0.179688"/><stop stop-opacity="1" stop-color="rgb(74.67041%, 55.136108%, 14.250183%)" offset="0.183594"/><stop stop-opacity="1" stop-color="rgb(75.352478%, 55.793762%, 14.492798%)" offset="0.1875"/><stop stop-opacity="1" stop-color="rgb(75.999451%, 56.420898%, 14.718628%)" offset="0.191406"/><stop stop-opacity="1" stop-color="rgb(76.647949%, 57.048035%, 14.945984%)" offset="0.195312"/><stop stop-opacity="1" stop-color="rgb(77.114868%, 57.514954%, 15.092468%)" offset="0.199219"/><stop stop-opacity="1" stop-color="rgb(77.581787%, 57.981873%, 15.238953%)" offset="0.203125"/><stop stop-opacity="1" stop-color="rgb(78.04718%, 58.447266%, 15.385437%)" offset="0.207031"/><stop stop-opacity="1" stop-color="rgb(78.514099%, 58.914185%, 15.531921%)" offset="0.210937"/><stop stop-opacity="1" stop-color="rgb(78.981018%, 59.381104%, 15.678406%)" offset="0.214844"/><stop stop-opacity="1" stop-color="rgb(79.447937%, 59.848022%, 15.82489%)" offset="0.21875"/><stop stop-opacity="1" stop-color="rgb(79.91333%, 60.313416%, 15.971375%)" offset="0.222656"/><stop stop-opacity="1" stop-color="rgb(80.380249%, 60.780334%, 16.117859%)" offset="0.226562"/><stop stop-opacity="1" stop-color="rgb(80.847168%, 61.247253%, 16.264343%)" offset="0.230469"/><stop stop-opacity="1" stop-color="rgb(81.314087%, 61.714172%, 16.410828%)" offset="0.234375"/><stop stop-opacity="1" stop-color="rgb(81.77948%, 62.179565%, 16.557312%)" offset="0.238281"/><stop stop-opacity="1" stop-color="rgb(82.246399%, 62.646484%, 16.703796%)" offset="0.242187"/><stop stop-opacity="1" stop-color="rgb(82.713318%, 63.113403%, 16.850281%)" offset="0.246094"/><stop stop-opacity="1" stop-color="rgb(83.180237%, 63.580322%, 16.996765%)" offset="0.25"/><stop stop-opacity="1" stop-color="rgb(83.647156%, 64.045715%, 17.14325%)" offset="0.253906"/><stop stop-opacity="1" stop-color="rgb(84.114075%, 64.512634%, 17.289734%)" offset="0.257812"/><stop stop-opacity="1" stop-color="rgb(84.579468%, 64.979553%, 17.436218%)" offset="0.261719"/><stop stop-opacity="1" stop-color="rgb(85.046387%, 65.446472%, 17.582703%)" offset="0.265625"/><stop stop-opacity="1" stop-color="rgb(85.369873%, 65.769958%, 17.697144%)" offset="0.269531"/><stop stop-opacity="1" stop-color="rgb(85.694885%, 66.094971%, 17.81311%)" offset="0.273438"/><stop stop-opacity="1" stop-color="rgb(86.009216%, 66.409302%, 17.926025%)" offset="0.277344"/><stop stop-opacity="1" stop-color="rgb(86.325073%, 66.725159%, 18.03894%)" offset="0.28125"/><stop stop-opacity="1" stop-color="rgb(86.639404%, 67.03949%, 18.151855%)" offset="0.285156"/><stop stop-opacity="1" stop-color="rgb(86.955261%, 67.355347%, 18.264771%)" offset="0.289062"/><stop stop-opacity="1" stop-color="rgb(87.271118%, 67.669678%, 18.377686%)" offset="0.292969"/><stop stop-opacity="1" stop-color="rgb(87.586975%, 67.985535%, 18.490601%)" offset="0.296875"/><stop stop-opacity="1" stop-color="rgb(87.901306%, 68.301392%, 18.603516%)" offset="0.300781"/><stop stop-opacity="1" stop-color="rgb(88.217163%, 68.617249%, 18.716431%)" offset="0.304688"/><stop stop-opacity="1" stop-color="rgb(88.531494%, 68.93158%, 18.829346%)" offset="0.308594"/><stop stop-opacity="1" stop-color="rgb(88.847351%, 69.247437%, 18.942261%)" offset="0.3125"/><stop stop-opacity="1" stop-color="rgb(89.161682%, 69.561768%, 19.055176%)" offset="0.316406"/><stop stop-opacity="1" stop-color="rgb(89.477539%, 69.877625%, 19.168091%)" offset="0.320312"/><stop stop-opacity="1" stop-color="rgb(89.793396%, 70.193481%, 19.281006%)" offset="0.324219"/><stop stop-opacity="1" stop-color="rgb(90.109253%, 70.509338%, 19.393921%)" offset="0.328125"/><stop stop-opacity="1" stop-color="rgb(90.423584%, 70.823669%, 19.506836%)" offset="0.332031"/><stop stop-opacity="1" stop-color="rgb(90.739441%, 71.139526%, 19.619751%)" offset="0.335938"/><stop stop-opacity="1" stop-color="rgb(91.053772%, 71.453857%, 19.732666%)" offset="0.339844"/><stop stop-opacity="1" stop-color="rgb(91.369629%, 71.769714%, 19.845581%)" offset="0.34375"/><stop stop-opacity="1" stop-color="rgb(91.636658%, 72.036743%, 19.941711%)" offset="0.347656"/><stop stop-opacity="1" stop-color="rgb(91.903687%, 72.303772%, 20.037842%)" offset="0.351562"/><stop stop-opacity="1" stop-color="rgb(92.066956%, 72.467041%, 20.098877%)" offset="0.359375"/><stop stop-opacity="1" stop-color="rgb(92.391968%, 72.792053%, 20.219421%)" offset="0.367188"/><stop stop-opacity="1" stop-color="rgb(92.718506%, 73.118591%, 20.341492%)" offset="0.375"/><stop stop-opacity="1" stop-color="rgb(93.045044%, 73.445129%, 20.462036%)" offset="0.382812"/><stop stop-opacity="1" stop-color="rgb(93.371582%, 73.771667%, 20.584106%)" offset="0.390625"/><stop stop-opacity="1" stop-color="rgb(93.696594%, 74.09668%, 20.704651%)" offset="0.398437"/><stop stop-opacity="1" stop-color="rgb(94.023132%, 74.423218%, 20.826721%)" offset="0.40625"/><stop stop-opacity="1" stop-color="rgb(94.34967%, 74.749756%, 20.947266%)" offset="0.414062"/><stop stop-opacity="1" stop-color="rgb(94.676208%, 75.076294%, 21.069336%)" offset="0.421875"/><stop stop-opacity="1" stop-color="rgb(95.001221%, 75.401306%, 21.18988%)" offset="0.429687"/><stop stop-opacity="1" stop-color="rgb(95.327759%, 75.727844%, 21.311951%)" offset="0.4375"/><stop stop-opacity="1" stop-color="rgb(95.654297%, 76.054382%, 21.434021%)" offset="0.445312"/><stop stop-opacity="1" stop-color="rgb(95.968628%, 76.367188%, 21.549988%)" offset="0.453125"/><stop stop-opacity="1" stop-color="rgb(96.264648%, 76.663208%, 21.647644%)" offset="0.46875"/><stop stop-opacity="1" stop-color="rgb(96.554565%, 76.954651%, 21.734619%)" offset="0.484375"/><stop stop-opacity="1" stop-color="rgb(96.846008%, 77.246094%, 21.820068%)" offset="0.5"/><stop stop-opacity="1" stop-color="rgb(97.137451%, 77.537537%, 21.907043%)" offset="0.515625"/><stop stop-opacity="1" stop-color="rgb(97.427368%, 77.827454%, 21.992493%)" offset="0.53125"/><stop stop-opacity="1" stop-color="rgb(97.718811%, 78.118896%, 22.079468%)" offset="0.546875"/><stop stop-opacity="1" stop-color="rgb(98.010254%, 78.410339%, 22.164917%)" offset="0.5625"/><stop stop-opacity="1" stop-color="rgb(98.300171%, 78.700256%, 22.251892%)" offset="0.578125"/><stop stop-opacity="1" stop-color="rgb(98.591614%, 78.991699%, 22.337341%)" offset="0.59375"/><stop stop-opacity="1" stop-color="rgb(98.796082%, 79.196167%, 22.399902%)" offset="0.625"/><stop stop-opacity="1" stop-color="rgb(98.977661%, 79.377747%, 22.465515%)" offset="0.75"/><stop stop-opacity="1" stop-color="rgb(99.226379%, 79.626465%, 22.558594%)" offset="0.875"/><stop stop-opacity="1" stop-color="rgb(99.475098%, 79.875183%, 22.651672%)" offset="1"/></linearGradient><clipPath id="id5"><path d="M 64.691406 70.570312 L 113 70.570312 L 113 226.570312 L 64.691406 226.570312 Z M 64.691406 70.570312 " clip-rule="nonzero"/></clipPath><clipPath id="id6"><path d="M 251 70.570312 L 298.007812 70.570312 L 298.007812 226.570312 L 251 226.570312 Z M 251 70.570312 " clip-rule="nonzero"/></clipPath><clipPath id="id7"><path d="M 252.351562 307.328125 L 271.851562 307.328125 L 271.851562 329.828125 L 252.351562 329.828125 Z M 252.351562 307.328125 " clip-rule="nonzero"/></clipPath><clipPath id="id8"><path d="M 175.554688 309.011719 L 195.054688 309.011719 L 195.054688 330.761719 L 175.554688 330.761719 Z M 175.554688 309.011719 " clip-rule="nonzero"/></clipPath><clipPath id="id9"><path d="M 90.753906 305.828125 L 113.253906 305.828125 L 113.253906 331.328125 L 90.753906 331.328125 Z M 90.753906 305.828125 " clip-rule="nonzero"/></clipPath><clipPath id="id10"><path d="M 90.753906 305.828125 L 113 305.828125 L 113 325 L 90.753906 325 Z M 90.753906 305.828125 " clip-rule="nonzero"/></clipPath><clipPath id="id11"><path d="M 101 312 L 113.253906 312 L 113.253906 325 L 101 325 Z M 101 312 " clip-rule="nonzero"/></clipPath><clipPath id="id12"><path d="M 213.953125 309.597656 L 233.453125 309.597656 L 233.453125 330.597656 L 213.953125 330.597656 Z M 213.953125 309.597656 " clip-rule="nonzero"/></clipPath><clipPath id="id13"><path d="M 223 309.597656 L 233.453125 309.597656 L 233.453125 330.597656 L 223 330.597656 Z M 223 309.597656 " clip-rule="nonzero"/></clipPath><clipPath id="id14"><path d="M 134 299.292969 L 154 299.292969 L 154 337.542969 L 134 337.542969 Z M 134 299.292969 " clip-rule="nonzero"/></clipPath></defs><g clip-path="url(#id1)"><path fill="#feea3a" d="M 136.25 208.800781 L 136.25 88.050781 L 196.871094 88.050781 C 224.097656 88.050781 238.988281 106.328125 238.988281 128.246094 C 238.988281 149.964844 224.113281 168.257812 196.871094 168.257812 L 167.46875 168.257812 L 167.46875 208.800781 Z M 207.207031 128.246094 C 207.207031 119.914062 201.035156 115.203125 192.679688 115.203125 L 167.46875 115.203125 L 167.46875 141.089844 L 192.695312 141.089844 C 201.050781 141.089844 207.207031 136.378906 207.207031 128.246094 Z M 207.207031 128.246094 " fill-opacity="1" fill-rule="nonzero"/></g><g clip-path="url(#id2)"><g clip-path="url(#id3)"><path fill="url(#id4)" d="M 167.484375 88.050781 L 167.484375 168.257812 L 238.972656 168.257812 L 238.972656 88.050781 Z M 167.484375 88.050781 " fill-rule="nonzero"/></g></g><g clip-path="url(#id5)"><path fill="#a531b4" d="M 108.09375 87.902344 L 112.429688 87.902344 L 112.429688 70.570312 L 108.09375 70.570312 C 93.722656 70.570312 82.070312 82.210938 82.070312 96.570312 L 82.070312 126.902344 C 82.070312 129.632812 80.785156 132.199219 78.601562 133.835938 L 68.191406 141.636719 C 66.109375 143.199219 64.835938 145.613281 64.730469 148.210938 C 64.621094 150.808594 65.6875 153.320312 67.632812 155.046875 L 79.15625 165.28125 C 81.011719 166.925781 82.070312 169.285156 82.070312 171.757812 L 82.070312 200.570312 C 82.070312 214.929688 93.722656 226.570312 108.09375 226.570312 L 112.429688 226.570312 L 112.429688 209.238281 L 108.09375 209.238281 C 103.300781 209.238281 99.417969 205.355469 99.417969 200.570312 L 99.417969 171.757812 C 99.417969 164.332031 96.238281 157.257812 90.683594 152.324219 L 87.09375 149.140625 L 89.007812 147.703125 C 95.5625 142.792969 99.417969 135.085938 99.417969 126.902344 L 99.417969 96.570312 C 99.417969 91.785156 103.300781 87.902344 108.09375 87.902344 Z M 108.09375 87.902344 " fill-opacity="1" fill-rule="evenodd"/></g><g clip-path="url(#id6)"><path fill="#a531b4" d="M 256.199219 87.902344 L 251.863281 87.902344 L 251.863281 70.570312 L 256.199219 70.570312 C 270.574219 70.570312 282.222656 82.210938 282.222656 96.570312 L 282.222656 126.902344 C 282.222656 129.632812 283.507812 132.199219 285.695312 133.835938 L 296.101562 141.636719 C 298.183594 143.199219 299.457031 145.613281 299.566406 148.210938 C 299.671875 150.808594 298.605469 153.320312 296.660156 155.046875 L 285.136719 165.28125 C 283.285156 166.925781 282.222656 169.285156 282.222656 171.757812 L 282.222656 200.570312 C 282.222656 214.929688 270.574219 226.570312 256.199219 226.570312 L 251.863281 226.570312 L 251.863281 209.238281 L 256.199219 209.238281 C 260.992188 209.238281 264.875 205.355469 264.875 200.570312 L 264.875 171.757812 C 264.875 164.332031 268.054688 157.257812 273.613281 152.324219 L 277.199219 149.140625 L 275.285156 147.703125 C 268.730469 142.792969 264.875 135.085938 264.875 126.902344 L 264.875 96.570312 C 264.875 91.785156 260.992188 87.902344 256.199219 87.902344 Z M 256.199219 87.902344 " fill-opacity="1" fill-rule="evenodd"/></g><g clip-path="url(#id7)"><path fill="#e44d26" d="M 254.121094 327.527344 L 252.34375 307.394531 L 271.855469 307.394531 L 270.078125 327.523438 L 262.085938 329.761719 Z M 254.121094 327.527344 " fill-opacity="1" fill-rule="nonzero"/></g><path fill="#f16529" d="M 268.554688 326.242188 L 270.074219 309.039062 L 262.101562 309.039062 L 262.101562 328.050781 Z M 268.554688 326.242188 " fill-opacity="1" fill-rule="nonzero"/><path fill="#ebebeb" d="M 262.089844 311.507812 L 255.976562 311.507812 L 256.632812 318.976562 L 262.101562 318.976562 L 262.101562 316.507812 L 258.867188 316.507812 L 258.644531 313.980469 L 262.101562 313.980469 L 262.101562 311.507812 Z M 262.101562 322.910156 L 262.089844 322.914062 L 259.371094 322.171875 L 259.195312 320.203125 L 256.742188 320.203125 L 257.085938 324.078125 L 262.089844 325.476562 L 262.101562 325.472656 Z M 262.101562 322.910156 " fill-opacity="1" fill-rule="nonzero"/><path fill="#ffffff" d="M 262.089844 318.976562 L 265.097656 318.976562 L 264.824219 322.175781 L 262.097656 322.921875 L 262.097656 325.488281 L 267.105469 324.085938 L 267.777344 316.503906 L 262.101562 316.503906 Z M 268.152344 312.171875 L 268.210938 311.507812 L 262.089844 311.507812 L 262.089844 313.976562 L 267.988281 313.976562 L 268.039062 313.421875 Z M 268.152344 312.171875 " fill-opacity="1" fill-rule="nonzero"/><g clip-path="url(#id8)"><path fill="#0277bd" d="M 195.054688 309.011719 L 175.558594 309.011719 L 177.277344 328.472656 L 185.304688 330.761719 L 193.335938 328.472656 Z M 195.054688 309.011719 " fill-opacity="1" fill-rule="nonzero"/></g><path fill="#039be5" d="M 185.304688 310.726562 L 185.304688 328.988281 L 191.730469 327.15625 L 193.164062 310.726562 Z M 185.304688 310.726562 " fill-opacity="1" fill-rule="nonzero"/><path fill="#ffffff" d="M 190.523438 313.589844 L 185.304688 313.589844 L 185.304688 315.878906 L 188.117188 315.878906 L 187.945312 318.167969 L 185.304688 318.167969 L 185.304688 320.457031 L 187.828125 320.457031 L 187.65625 323.035156 L 185.304688 323.835938 L 185.304688 326.238281 L 189.835938 324.75 L 190.238281 318.167969 Z M 190.523438 313.589844 " fill-opacity="1" fill-rule="nonzero"/><path fill="#eeeeee" d="M 185.304688 313.589844 L 185.304688 315.878906 L 180.203125 315.878906 L 180.03125 313.589844 Z M 182.667969 318.167969 L 182.78125 320.457031 L 185.304688 320.457031 L 185.304688 318.167969 Z M 182.898438 321.601562 L 180.605469 321.601562 L 180.777344 324.75 L 185.304688 326.238281 L 185.304688 323.835938 L 182.957031 323.035156 Z M 182.898438 321.601562 " fill-opacity="1" fill-rule="nonzero"/><g clip-path="url(#id9)"><path fill="#00c853" d="M 101.355469 306.0625 C 101.757812 305.832031 102.25 305.832031 102.648438 306.0625 C 104.625 307.199219 110.574219 310.625 112.550781 311.761719 C 112.953125 311.992188 113.199219 312.417969 113.199219 312.878906 C 113.199219 315.15625 113.199219 322.003906 113.199219 324.28125 C 113.199219 324.738281 112.953125 325.164062 112.550781 325.394531 C 110.574219 326.535156 104.625 329.957031 102.648438 331.097656 C 102.246094 331.328125 101.753906 331.328125 101.355469 331.097656 C 99.378906 329.957031 93.429688 326.535156 91.453125 325.394531 C 91.054688 325.164062 90.804688 324.742188 90.804688 324.28125 C 90.804688 322.003906 90.804688 315.15625 90.804688 312.878906 C 90.804688 312.417969 91.054688 311.992188 91.453125 311.761719 C 93.429688 310.625 99.378906 307.199219 101.355469 306.0625 Z M 101.355469 306.0625 " fill-opacity="1" fill-rule="nonzero"/></g><g clip-path="url(#id10)"><path fill="#69f0ae" d="M 90.984375 324.867188 C 90.828125 324.652344 90.804688 324.445312 90.804688 324.171875 C 90.804688 321.910156 90.804688 315.097656 90.804688 312.835938 C 90.804688 312.378906 91.050781 311.957031 91.453125 311.726562 C 93.421875 310.597656 99.351562 307.191406 101.320312 306.058594 C 101.71875 305.828125 102.257812 305.835938 102.65625 306.0625 C 104.628906 307.195312 110.535156 310.570312 112.507812 311.703125 C 112.664062 311.792969 112.785156 311.90625 112.894531 312.050781 Z M 90.984375 324.867188 " fill-opacity="1" fill-rule="nonzero"/></g><path fill="#ffffff" d="M 102.003906 310.121094 C 97.449219 310.121094 93.753906 313.910156 93.753906 318.578125 C 93.753906 323.25 97.449219 327.039062 102.003906 327.039062 C 106.558594 327.039062 110.25 323.25 110.25 318.578125 C 110.25 313.910156 106.558594 310.121094 102.003906 310.121094 Z M 102.003906 322.808594 C 99.726562 322.808594 97.878906 320.910156 97.878906 318.578125 C 97.878906 316.246094 99.726562 314.347656 102.003906 314.347656 C 104.277344 314.347656 106.125 316.246094 106.125 318.578125 C 106.125 320.910156 104.277344 322.808594 102.003906 322.808594 Z M 102.003906 322.808594 " fill-opacity="1" fill-rule="nonzero"/><g clip-path="url(#id11)"><path fill="#00e676" d="M 112.894531 312.054688 C 113.199219 312.347656 113.191406 312.789062 113.191406 313.132812 C 113.191406 315.425781 113.171875 321.949219 113.199219 324.242188 C 113.199219 324.484375 113.121094 324.734375 113.007812 324.925781 L 101.761719 318.578125 Z M 112.894531 312.054688 " fill-opacity="1" fill-rule="nonzero"/></g><path fill="#ffffff" d="M 107.894531 316.164062 L 108.484375 316.164062 L 108.484375 320.996094 L 107.894531 320.996094 Z M 109.664062 316.164062 L 110.25 316.164062 L 110.25 320.996094 L 109.664062 320.996094 Z M 109.664062 316.164062 " fill-opacity="1" fill-rule="nonzero"/><path fill="#ffffff" d="M 106.714844 319.183594 L 111.429688 319.183594 L 111.429688 319.789062 L 106.714844 319.789062 Z M 106.714844 317.371094 L 111.429688 317.371094 L 111.429688 317.976562 L 106.714844 317.976562 Z M 106.714844 317.371094 " fill-opacity="1" fill-rule="nonzero"/><g clip-path="url(#id12)"><path fill="#e23237" d="M 213.976562 313.078125 L 223.574219 309.597656 L 233.429688 313.015625 L 231.835938 325.945312 L 223.574219 330.601562 L 215.441406 326.003906 Z M 213.976562 313.078125 " fill-opacity="1" fill-rule="nonzero"/></g><g clip-path="url(#id13)"><path fill="#b52e31" d="M 233.429688 313.015625 L 223.574219 309.597656 L 223.574219 330.597656 L 231.835938 325.949219 Z M 233.429688 313.015625 " fill-opacity="1" fill-rule="nonzero"/></g><path fill="#ffffff" d="M 223.589844 312.046875 L 217.609375 325.59375 L 219.84375 325.554688 L 221.042969 322.5 L 226.410156 322.5 L 227.722656 325.59375 L 229.859375 325.632812 L 223.589844 312.046875 L 223.589844 312.050781 Z M 223.605469 316.386719 L 225.625 320.691406 L 221.828125 320.691406 Z M 223.605469 316.386719 " fill-opacity="1" fill-rule="nonzero"/><path fill="#4e7896" d="M 141.179688 319.578125 C 141.179688 319.578125 140.183594 320.191406 141.871094 320.363281 C 143.902344 320.628906 144.980469 320.585938 147.230469 320.144531 C 147.230469 320.144531 147.835938 320.539062 148.65625 320.847656 C 143.597656 323.039062 137.199219 320.714844 141.179688 319.578125 Z M 140.53125 316.730469 C 140.53125 316.730469 139.449219 317.5625 141.136719 317.738281 C 143.339844 317.957031 145.070312 318 148.050781 317.386719 C 148.050781 317.386719 148.441406 317.824219 149.089844 318.042969 C 142.992188 319.882812 136.164062 318.21875 140.53125 316.730469 Z M 152.460938 321.722656 C 152.460938 321.722656 153.195312 322.335938 151.640625 322.816406 C 148.742188 323.695312 139.492188 323.957031 136.898438 322.816406 C 135.992188 322.425781 137.71875 321.855469 138.28125 321.765625 C 138.84375 321.636719 139.144531 321.636719 139.144531 321.636719 C 138.152344 320.933594 132.53125 323.082031 136.292969 323.695312 C 146.625 325.402344 155.140625 322.949219 152.460938 321.722656 Z M 141.652344 313.75 C 141.652344 313.75 136.941406 314.886719 139.96875 315.28125 C 141.265625 315.457031 143.816406 315.414062 146.191406 315.238281 C 148.136719 315.0625 150.082031 314.714844 150.082031 314.714844 C 150.082031 314.714844 149.390625 315.019531 148.917969 315.328125 C 144.117188 316.597656 134.910156 316.027344 137.546875 314.714844 C 139.796875 313.617188 141.652344 313.75 141.652344 313.75 Z M 150.082031 318.523438 C 154.925781 315.984375 152.675781 313.53125 151.121094 313.835938 C 150.730469 313.925781 150.558594 314.011719 150.558594 314.011719 C 150.558594 314.011719 150.6875 313.75 150.992188 313.660156 C 154.0625 312.566406 156.480469 316.945312 149.996094 318.65625 C 149.996094 318.65625 150.039062 318.613281 150.082031 318.523438 Z M 142.128906 325.445312 C 146.796875 325.753906 153.929688 325.269531 154.105469 323.035156 C 154.105469 323.035156 153.757812 323.914062 150.257812 324.570312 C 146.28125 325.316406 141.351562 325.226562 138.457031 324.746094 C 138.457031 324.746094 139.0625 325.269531 142.128906 325.445312 Z M 142.128906 325.445312 " fill-opacity="1" fill-rule="nonzero"/><g clip-path="url(#id14)"><path fill="#f58219" d="M 147.144531 299.292969 C 147.144531 299.292969 149.824219 302.050781 144.59375 306.214844 C 140.398438 309.585938 143.640625 311.515625 144.59375 313.707031 C 142.128906 311.472656 140.355469 309.5 141.566406 307.660156 C 143.339844 304.945312 148.226562 303.628906 147.144531 299.292969 Z M 145.761719 311.867188 C 147.015625 313.3125 145.414062 314.625 145.414062 314.625 C 145.414062 314.625 148.613281 312.960938 147.144531 310.902344 C 145.804688 308.929688 144.765625 307.964844 150.386719 304.683594 C 150.386719 304.683594 141.523438 306.917969 145.761719 311.867188 Z M 142.5625 335.390625 L 142.5625 331.097656 C 142.5625 330.003906 141.957031 329.257812 140.441406 329.257812 C 139.578125 329.257812 138.84375 329.476562 138.195312 329.738281 L 138.410156 330.527344 C 138.886719 330.351562 139.492188 330.175781 140.140625 330.175781 C 140.960938 330.175781 141.351562 330.527344 141.351562 331.226562 L 141.351562 331.796875 L 140.917969 331.796875 C 138.84375 331.796875 137.894531 332.585938 137.894531 333.855469 C 137.894531 334.910156 138.542969 335.523438 139.707031 335.523438 C 140.445312 335.523438 141.003906 335.171875 141.523438 334.734375 L 141.609375 335.390625 Z M 141.351562 333.988281 C 140.917969 334.382812 140.441406 334.601562 140.011719 334.601562 C 139.449219 334.601562 139.101562 334.253906 139.101562 333.640625 C 139.101562 333.027344 139.449219 332.585938 140.832031 332.585938 L 141.351562 332.585938 Z M 146.625 335.390625 L 145.113281 335.390625 L 143.296875 329.390625 L 144.59375 329.390625 L 145.71875 333.070312 L 145.976562 334.164062 C 146.539062 332.585938 146.972656 330.964844 147.144531 329.390625 L 148.441406 329.390625 C 148.09375 331.359375 147.488281 333.507812 146.625 335.390625 Z M 153.628906 335.390625 L 153.628906 331.097656 C 153.628906 330.003906 153.023438 329.257812 151.511719 329.257812 C 150.644531 329.257812 149.910156 329.476562 149.261719 329.738281 L 149.433594 330.527344 C 149.953125 330.351562 150.558594 330.175781 151.207031 330.175781 C 152.027344 330.175781 152.417969 330.527344 152.417969 331.226562 L 152.417969 331.796875 L 151.984375 331.796875 C 149.910156 331.796875 148.960938 332.585938 148.960938 333.855469 C 148.960938 334.910156 149.566406 335.523438 150.730469 335.523438 C 151.511719 335.523438 152.070312 335.171875 152.589844 334.734375 L 152.675781 335.390625 Z M 152.417969 333.988281 C 151.984375 334.382812 151.511719 334.601562 151.078125 334.601562 C 150.515625 334.601562 150.167969 334.253906 150.167969 333.640625 C 150.167969 333.027344 150.515625 332.585938 151.898438 332.585938 L 152.417969 332.585938 Z M 136.554688 336.398438 C 136.207031 336.925781 135.6875 337.320312 135.039062 337.539062 L 134.476562 336.835938 C 134.910156 336.574219 135.34375 336.179688 135.515625 335.828125 C 135.6875 335.523438 135.730469 335.085938 135.730469 334.078125 L 135.730469 327.242188 L 137.027344 327.242188 L 137.027344 333.988281 C 137.027344 335.347656 136.898438 335.875 136.554688 336.398438 Z M 136.554688 336.398438 " fill-opacity="1" fill-rule="nonzero"/></g><g fill="#ffffff" fill-opacity="1"><g transform="translate(62.341542, 262.453708)"><g><path d="M 10.394531 -23.355469 L 14.617188 -27.609375 L 10.992188 -27.609375 L 7.679688 -23.355469 Z M 16.445312 0 L 16.445312 -3.253906 L 5.652344 -3.253906 L 5.652344 -9.308594 L 15.246094 -9.308594 L 15.246094 -12.535156 L 5.652344 -12.535156 L 5.652344 -18.53125 L 16.445312 -18.53125 L 16.445312 -21.785156 L 2.027344 -21.785156 L 2.027344 0 Z M 16.445312 0 "/></g></g></g><g fill="#ffffff" fill-opacity="1"><g transform="translate(83.124858, 262.453708)"><g><path d="M 15.074219 0 L 15.074219 -3.253906 L 5.652344 -3.253906 L 5.652344 -21.785156 L 2.027344 -21.785156 L 2.027344 0 Z M 15.074219 0 "/></g></g></g><g fill="#ffffff" fill-opacity="1"><g transform="translate(101.652967, 262.453708)"><g><path d="M 5.652344 0 L 5.652344 -21.785156 L 2.027344 -21.785156 L 2.027344 0 Z M 5.652344 0 "/></g></g></g><g fill="#ffffff" fill-opacity="1"><g transform="translate(112.501954, 262.453708)"><g><path d="M 10.820312 0 L 10.820312 -18.53125 L 17.730469 -18.53125 L 17.730469 -21.785156 L 0.34375 -21.785156 L 0.34375 -18.53125 L 7.195312 -18.53125 L 7.195312 0 Z M 10.820312 0 "/></g></g></g><g fill="#ffffff" fill-opacity="1"><g transform="translate(133.656379, 262.453708)"><g><path d="M 11.648438 0.371094 C 18.730469 0.371094 22.070312 -4.910156 22.070312 -10.90625 C 22.070312 -16.902344 18.730469 -22.128906 11.648438 -22.128906 C 4.539062 -22.128906 1.226562 -16.902344 1.226562 -10.90625 C 1.226562 -4.910156 4.539062 0.371094 11.648438 0.371094 Z M 11.648438 -2.882812 C 7.367188 -2.882812 4.96875 -6.195312 4.96875 -10.90625 C 4.96875 -15.589844 7.367188 -18.902344 11.648438 -18.902344 C 15.960938 -18.902344 18.332031 -15.589844 18.332031 -10.90625 C 18.332031 -6.195312 15.960938 -2.882812 11.648438 -2.882812 Z M 11.648438 -2.882812 "/></g></g></g><g fill="#ffffff" fill-opacity="1"><g transform="translate(160.091989, 262.453708)"><g/></g></g><g fill="#ffffff" fill-opacity="1"><g transform="translate(170.969529, 262.453708)"><g><path d="M 5.652344 0 L 5.652344 -8.878906 L 11.019531 -8.878906 C 15.132812 -8.878906 17.902344 -11.308594 17.902344 -15.417969 C 17.902344 -19.84375 15.105469 -21.785156 11.019531 -21.785156 L 2.027344 -21.785156 L 2.027344 0 Z M 5.652344 -18.53125 L 10.535156 -18.53125 C 12.960938 -18.53125 14.332031 -17.386719 14.332031 -15.304688 C 14.332031 -13.191406 12.992188 -12.050781 10.535156 -12.050781 L 5.652344 -12.050781 Z M 5.652344 -18.53125 "/></g></g></g><g fill="#ffffff" fill-opacity="1"><g transform="translate(192.837631, 262.453708)"><g><path d="M 14.332031 -9.507812 C 16.558594 -10.507812 17.902344 -12.535156 17.902344 -15.417969 C 17.902344 -19.84375 15.105469 -21.785156 11.019531 -21.785156 L 2.027344 -21.785156 L 2.027344 0 L 5.652344 0 L 5.652344 -8.878906 L 10.851562 -8.878906 L 14.449219 0 L 18.359375 0 Z M 5.652344 -18.53125 L 10.535156 -18.53125 C 12.960938 -18.53125 14.332031 -17.386719 14.332031 -15.304688 C 14.332031 -13.191406 12.992188 -12.050781 10.535156 -12.050781 L 5.652344 -12.050781 Z M 5.652344 -18.53125 "/></g></g></g><g fill="#ffffff" fill-opacity="1"><g transform="translate(215.333762, 262.453708)"><g><path d="M 4.027344 0 L 5.652344 -4.769531 L 14.476562 -4.769531 L 16.074219 0 L 19.84375 0 L 12.050781 -21.785156 L 8.050781 -21.785156 L 0.257812 0 Z M 10.050781 -17.902344 L 13.390625 -7.9375 L 6.710938 -7.9375 Z M 10.050781 -17.902344 "/></g></g></g><g fill="#ffffff" fill-opacity="1"><g transform="translate(238.543568, 262.453708)"><g><path d="M 10.820312 0 L 10.820312 -18.53125 L 17.730469 -18.53125 L 17.730469 -21.785156 L 0.34375 -21.785156 L 0.34375 -18.53125 L 7.195312 -18.53125 L 7.195312 0 Z M 10.820312 0 "/></g></g></g><g fill="#ffffff" fill-opacity="1"><g transform="translate(259.698005, 262.453708)"><g><path d="M 16.445312 0 L 16.445312 -3.253906 L 5.652344 -3.253906 L 5.652344 -9.308594 L 15.246094 -9.308594 L 15.246094 -12.535156 L 5.652344 -12.535156 L 5.652344 -18.53125 L 16.445312 -18.53125 L 16.445312 -21.785156 L 2.027344 -21.785156 L 2.027344 0 Z M 16.445312 0 "/></g></g></g><g fill="#ffffff" fill-opacity="1"><g transform="translate(280.481321, 262.453708)"><g><path d="M 10.421875 0.371094 C 15.53125 0.371094 18.417969 -2.226562 18.417969 -6.253906 C 18.417969 -11.136719 14.246094 -12.019531 10.621094 -12.820312 C 7.878906 -13.417969 5.453125 -13.960938 5.453125 -16.1875 C 5.453125 -17.988281 6.9375 -19.015625 9.28125 -19.015625 C 11.59375 -19.015625 13.589844 -17.988281 14.191406 -15.476562 L 17.816406 -15.476562 C 17.101562 -20.101562 13.390625 -22.128906 9.335938 -22.128906 C 5.023438 -22.128906 1.828125 -19.902344 1.828125 -15.875 C 1.828125 -11.390625 5.769531 -10.535156 9.25 -9.792969 C 12.136719 -9.164062 14.789062 -8.59375 14.789062 -6.023438 C 14.789062 -3.796875 13.019531 -2.742188 10.480469 -2.742188 C 8.082031 -2.742188 5.480469 -3.683594 4.769531 -6.910156 L 1.085938 -6.910156 C 1.683594 -1.542969 6.195312 0.371094 10.421875 0.371094 Z M 10.421875 0.371094 "/></g></g></g><g fill="#feea3a" fill-opacity="1"><g transform="translate(84.374002, 288.074746)"><g><path d="M 4.503906 0 C 8.476562 0 10.648438 -2.15625 10.648438 -5.925781 C 10.648438 -9.757812 8.492188 -11.929688 4.519531 -11.929688 L 1.234375 -11.929688 L 1.234375 0 Z M 2.675781 -10.632812 L 4.503906 -10.632812 C 7.269531 -10.632812 9.210938 -9.414062 9.210938 -5.925781 C 9.210938 -2.15625 6.988281 -1.296875 4.488281 -1.296875 L 2.675781 -1.296875 Z M 2.675781 -10.632812 "/></g></g></g><g fill="#feea3a" fill-opacity="1"><g transform="translate(100.400801, 288.074746)"><g><path d="M 8.945312 0 L 8.945312 -1.296875 L 2.675781 -1.296875 L 2.675781 -5.347656 L 8.210938 -5.347656 L 8.210938 -6.628906 L 2.675781 -6.628906 L 2.675781 -10.632812 L 8.945312 -10.632812 L 8.945312 -11.929688 L 1.234375 -11.929688 L 1.234375 0 Z M 8.945312 0 "/></g></g></g><g fill="#feea3a" fill-opacity="1"><g transform="translate(114.614203, 288.074746)"><g><path d="M 5.550781 0.15625 C 8.273438 0.15625 9.726562 -1.21875 9.726562 -3.332031 C 9.726562 -5.941406 7.585938 -6.394531 5.628906 -6.816406 C 4.035156 -7.160156 2.582031 -7.476562 2.582031 -8.929688 C 2.582031 -10.070312 3.425781 -10.804688 5.035156 -10.804688 C 6.347656 -10.804688 7.648438 -10.273438 7.992188 -8.648438 L 9.382812 -8.648438 C 8.992188 -11.101562 7.066406 -12.085938 5.050781 -12.085938 C 2.722656 -12.085938 1.140625 -10.835938 1.140625 -8.804688 C 1.140625 -6.457031 3.128906 -6.035156 4.988281 -5.644531 C 6.675781 -5.285156 8.289062 -4.941406 8.289062 -3.238281 C 8.289062 -1.8125 7.285156 -1.125 5.613281 -1.125 C 4.128906 -1.125 2.488281 -1.703125 2.109375 -3.613281 L 0.65625 -3.613281 C 1.0625 -0.9375 3.191406 0.15625 5.550781 0.15625 Z M 5.550781 0.15625 "/></g></g></g><g fill="#feea3a" fill-opacity="1"><g transform="translate(129.718678, 288.074746)"><g><path d="M 8.945312 0 L 8.945312 -1.296875 L 2.675781 -1.296875 L 2.675781 -5.347656 L 8.210938 -5.347656 L 8.210938 -6.628906 L 2.675781 -6.628906 L 2.675781 -10.632812 L 8.945312 -10.632812 L 8.945312 -11.929688 L 1.234375 -11.929688 L 1.234375 0 Z M 8.945312 0 "/></g></g></g><g fill="#feea3a" fill-opacity="1"><g transform="translate(143.932078, 288.074746)"><g><path d="M 2.675781 0 L 2.675781 -10.460938 L 8.023438 0 L 10.117188 0 L 10.117188 -11.929688 L 8.695312 -11.929688 L 8.695312 -1.4375 L 3.332031 -11.929688 L 1.234375 -11.929688 L 1.234375 0 Z M 2.675781 0 "/></g></g></g><g fill="#feea3a" fill-opacity="1"><g transform="translate(159.880712, 288.074746)"><g><path d="M 6.238281 0 L 10.632812 -11.929688 L 9.179688 -11.929688 L 5.425781 -1.46875 L 1.671875 -11.929688 L 0.21875 -11.929688 L 4.613281 0 Z M 6.238281 0 "/></g></g></g><g fill="#feea3a" fill-opacity="1"><g transform="translate(175.31347, 288.074746)"><g><path d="M 6.316406 0.15625 C 10.101562 0.15625 11.882812 -2.722656 11.882812 -5.972656 C 11.882812 -9.226562 10.101562 -12.085938 6.316406 -12.085938 C 2.566406 -12.085938 0.78125 -9.226562 0.78125 -5.972656 C 0.78125 -2.722656 2.566406 0.15625 6.316406 0.15625 Z M 6.316406 -1.140625 C 3.675781 -1.140625 2.21875 -3.175781 2.21875 -5.972656 C 2.21875 -8.757812 3.675781 -10.789062 6.316406 -10.789062 C 9.007812 -10.789062 10.445312 -8.757812 10.445312 -5.972656 C 10.445312 -3.175781 9.007812 -1.140625 6.316406 -1.140625 Z M 6.316406 -1.140625 "/></g></g></g><g fill="#feea3a" fill-opacity="1"><g transform="translate(192.575273, 288.074746)"><g><path d="M 8.023438 0 L 8.023438 -1.296875 L 2.675781 -1.296875 L 2.675781 -11.929688 L 1.234375 -11.929688 L 1.234375 0 Z M 8.023438 0 "/></g></g></g><g fill="#feea3a" fill-opacity="1"><g transform="translate(205.412979, 288.074746)"><g><path d="M 6.238281 0 L 10.632812 -11.929688 L 9.179688 -11.929688 L 5.425781 -1.46875 L 1.671875 -11.929688 L 0.21875 -11.929688 L 4.613281 0 Z M 6.238281 0 "/></g></g></g><g fill="#feea3a" fill-opacity="1"><g transform="translate(220.845736, 288.074746)"><g><path d="M 8.945312 0 L 8.945312 -1.296875 L 2.675781 -1.296875 L 2.675781 -5.347656 L 8.210938 -5.347656 L 8.210938 -6.628906 L 2.675781 -6.628906 L 2.675781 -10.632812 L 8.945312 -10.632812 L 8.945312 -11.929688 L 1.234375 -11.929688 L 1.234375 0 Z M 8.945312 0 "/></g></g></g><g fill="#feea3a" fill-opacity="1"><g transform="translate(235.059137, 288.074746)"><g><path d="M 4.503906 0 C 8.476562 0 10.648438 -2.15625 10.648438 -5.925781 C 10.648438 -9.757812 8.492188 -11.929688 4.519531 -11.929688 L 1.234375 -11.929688 L 1.234375 0 Z M 2.675781 -10.632812 L 4.503906 -10.632812 C 7.269531 -10.632812 9.210938 -9.414062 9.210938 -5.925781 C 9.210938 -2.15625 6.988281 -1.296875 4.488281 -1.296875 L 2.675781 -1.296875 Z M 2.675781 -10.632812 "/></g></g></g><g fill="#feea3a" fill-opacity="1"><g transform="translate(251.085934, 288.074746)"><g><path d="M 6.316406 0.15625 C 10.101562 0.15625 11.882812 -2.722656 11.882812 -5.972656 C 11.882812 -9.226562 10.101562 -12.085938 6.316406 -12.085938 C 2.566406 -12.085938 0.78125 -9.226562 0.78125 -5.972656 C 0.78125 -2.722656 2.566406 0.15625 6.316406 0.15625 Z M 6.316406 -1.140625 C 3.675781 -1.140625 2.21875 -3.175781 2.21875 -5.972656 C 2.21875 -8.757812 3.675781 -10.789062 6.316406 -10.789062 C 9.007812 -10.789062 10.445312 -8.757812 10.445312 -5.972656 C 10.445312 -3.175781 9.007812 -1.140625 6.316406 -1.140625 Z M 6.316406 -1.140625 "/></g></g></g><g fill="#feea3a" fill-opacity="1"><g transform="translate(268.347732, 288.074746)"><g><path d="M 7.316406 -5.300781 C 8.664062 -5.785156 9.460938 -6.910156 9.460938 -8.523438 C 9.460938 -10.820312 7.960938 -11.929688 5.675781 -11.929688 L 1.234375 -11.929688 L 1.234375 0 L 2.675781 0 L 2.675781 -5.035156 L 5.925781 -5.035156 L 8.039062 0 L 9.617188 0 Z M 2.675781 -6.316406 L 2.675781 -10.632812 L 5.488281 -10.632812 C 7.097656 -10.632812 8.039062 -9.851562 8.039062 -8.476562 C 8.039062 -7.082031 7.128906 -6.316406 5.488281 -6.316406 Z M 2.675781 -6.316406 "/></g></g></g></svg>